# xmcd CD database file
#
# Track frame offsets:
#	150
#	22874
#	40049
#	59924
#	79274
#	100799
#	109649
#	127949
#	147224
#	164624
#	179549
#	198224
#
# Disc length: 2763 seconds
#
# Revision: 0
# Processed by: cddbd v1.5.2PL0 Copyright (c) Steve Scherf et al.
# Submitted via: CDex 1.51
#
DISCID=9d0ac90c
DTITLE=Thomas Otten - Close to Silence
DYEAR=1900
DGENRE=New Age
TTITLE0=Qualitati Umane
TTITLE1=Duplciate
TTITLE2=Espiritu
TTITLE3=Divigi Tu
TTITLE4=Close to Silence
TTITLE5=Underdown Aperture
TTITLE6=Utter Confusion
TTITLE7=Sanza
TTITLE8=Ombra Mai Fu
TTITLE9=Merciful Raindrops
TTITLE10=Offelini
TTITLE11=A Quiet Moment
EXTD=
EXTT0=
EXTT1=
EXTT2=
EXTT3=
EXTT4=
EXTT5=
EXTT6=
EXTT7=
EXTT8=
EXTT9=
EXTT10=
EXTT11=
PLAYORDER=
